<svg xmlns="http://www.w3.org/2000/svg" width="256" height="256" viewBox="0 0 100 100"><rect width="100" height="100" rx="20" fill="#521717"></rect><path fill="#dd9e9e" d="M47.44 23.92L47.44 23.92Q47.88 27.87 47.61 30.60L47.61 30.60Q47.61 30.60 47.08 34.91L47.08 34.91Q46.91 36.40 47.04 38.77Q47.17 41.15 46.56 42.16Q45.94 43.17 44.49 43.43Q43.04 43.69 42.21 43.30Q41.37 42.90 40.67 42.46L40.67 42.46Q38.91 41.50 37.81 42.20Q36.71 42.90 36.27 44.31Q35.83 45.72 35.75 47.56L35.75 47.56Q35.48 50.29 35.75 54.68L35.75 54.68Q35.83 56.26 35.79 57.19Q35.75 58.11 35.75 58.81L35.75 58.81Q35.75 60.48 36.27 62.06Q36.80 63.65 36.80 64.44Q36.80 65.23 36.58 65.71Q36.36 66.19 35.92 66.50Q35.48 66.81 35.13 67.12Q34.78 67.43 34.38 67.73Q33.99 68.04 33.55 68.39L33.55 68.39Q33.99 72.70 33.73 75.20Q33.46 77.71 33.37 79.47Q33.29 81.22 32.49 82.19L32.49 82.19Q31.44 83.42 28.28 83.95L28.28 83.95Q26.43 84.04 25.55 82.06Q24.67 80.08 24.80 77.27Q24.94 74.46 24.67 72.92Q24.41 71.38 24.01 70.33Q23.62 69.27 23.27 68.44Q22.91 67.60 22.65 66.11Q22.39 64.61 23.00 62.85L23.00 62.85Q21.77 61.45 21.33 59.87Q20.89 58.28 21.46 55.69Q22.04 53.10 22.26 50.99Q22.48 48.88 22.39 47.12L22.39 47.12Q22.21 43.08 20.54 42.46L20.54 42.46Q19.31 42.11 17.86 43.08Q16.41 44.05 15.62 44.31Q14.83 44.57 14.08 43.96Q13.33 43.34 13.38 42.46Q13.42 41.59 13.69 40.57Q13.95 39.56 14.17 38.60Q14.39 37.63 14.04 36.75L14.04 36.75Q13.69 35.87 13.16 35.61Q12.63 35.35 12.19 34.73L12.19 34.73Q11.05 33.32 11.58 29.76Q12.10 26.20 12.37 23.92Q12.63 21.63 12.76 20.54Q12.89 19.44 13.33 18.56Q13.77 17.68 14.65 16.98L14.65 16.98Q16.85 15.39 20.37 15.83L20.37 15.83Q36.54 18.03 38.73 17.33L38.73 17.33Q39.61 17.06 40.32 16.80L40.32 16.80Q46.38 14.34 47.44 23.92ZM53.50 72.52L53.76 70.41L53.24 67.16Q53.24 66.28 52.89 65.98Q52.53 65.67 51.74 64.96Q50.95 64.26 50.78 62.72Q50.60 61.19 50.69 59.16L50.69 59.16Q50.86 56.61 51.65 50.55L51.65 50.55Q51.04 42.99 50.86 40.79L50.86 40.79Q49.90 29.19 51.39 26.47L51.39 26.47Q51.74 25.77 52.09 25.41L52.09 25.41Q52.80 24.71 52.71 23.13L52.71 23.13Q52.36 19.88 56.14 18.65L56.14 18.65Q57.28 18.29 58.33 17.77Q59.39 17.24 60.53 16.80L60.53 16.80Q63.08 15.92 64.88 16.84Q66.68 17.77 68.62 17.55Q70.55 17.33 72.57 17.02Q74.59 16.71 76.48 16.62Q78.37 16.54 79.74 17.50Q81.10 18.47 82.64 19.61Q84.17 20.76 85.40 22.16L85.40 22.16Q88.13 25.33 87.69 28.31L87.69 28.31Q89.10 31.65 88.31 34.64L88.31 34.64Q88.04 35.43 88.22 36.22L88.22 36.22Q88.57 37.81 88.22 39.04Q87.87 40.27 88.09 41.63Q88.31 42.99 87.69 44.40Q87.07 45.80 86.90 47.03Q86.72 48.27 86.02 49.10Q85.32 49.94 84.75 50.07Q84.17 50.20 83.69 50.59Q83.21 50.99 82.99 51.43Q82.77 51.87 82.33 52.40L82.33 52.40Q81.36 53.71 79.60 54.59L79.60 54.59Q80.57 56.26 81.89 57.19Q83.21 58.11 84.13 59.21Q85.05 60.31 85.10 61.27Q85.14 62.24 85.49 63.21Q85.84 64.17 85.76 64.74Q85.67 65.32 85.54 65.98Q85.40 66.63 85.23 67.38Q85.05 68.13 85.10 69.05Q85.14 69.97 84.92 70.63Q84.70 71.29 84.31 71.95Q83.91 72.61 83.38 73.40Q82.86 74.19 82.42 75.34L82.42 75.34Q81.89 76.74 80.70 77.84Q79.52 78.94 78.86 79.60Q78.20 80.26 77.58 81.40L77.58 81.40Q76.44 83.51 74.42 84.12L74.42 84.12Q72.57 84.65 71.61 83.16L71.61 83.16Q71.08 82.19 69.72 82.81Q68.35 83.42 67.56 83.82Q66.77 84.21 65.67 84.08Q64.57 83.95 63.48 83.73Q62.38 83.51 61.23 83.90Q60.09 84.30 59.13 84.12Q58.16 83.95 57.37 83.51L57.37 83.51Q55.61 82.63 55.08 81.05Q54.56 79.47 54.38 77.75Q54.20 76.04 53.85 74.59Q53.50 73.14 53.50 72.52L53.50 72.52ZM66.24 46.51L66.24 46.51Q66.24 51.17 67.91 51.17L67.91 51.17Q68.79 51.17 69.50 49.89Q70.20 48.62 70.38 47.47L70.38 47.47Q70.46 46.33 70.51 45.14Q70.55 43.96 71.65 42.16Q72.75 40.35 72.35 38.82Q71.96 37.28 70.99 36.97Q70.02 36.66 69.28 36.00Q68.53 35.35 67.61 34.91Q66.68 34.47 66.02 35.56Q65.37 36.66 66.02 38.07Q66.68 39.48 66.46 41.85Q66.24 44.22 66.24 46.51ZM68.71 59.16L68.71 59.16Q66.68 58.55 66.51 61.19L66.51 61.19Q66.33 63.03 66.07 64.96Q65.81 66.90 66.02 67.86Q66.24 68.83 66.51 69.97L66.51 69.97Q67.04 70.41 67.56 70.77Q68.09 71.12 68.53 71.47L68.53 71.47Q69.06 70.41 69.54 69.89Q70.02 69.36 70.38 68.74L70.38 68.74Q71.25 67.34 71.39 65.27Q71.52 63.21 71.08 61.98L71.08 61.98Q70.38 59.69 68.71 59.16Z"></path></svg>